# xmcd
#
# Track frame offsets:
#	150
#	34475
#	61424
#	76044
#	95453
#	120577
#	142131
#	166865
#	180530
#	200044
#	216218
#	249628
#
# Disc length: 3485 seconds
#
# Revision: 1
# Processed by: cddbd v1.5.2PL0 Copyright (c) Steve Scherf et al.
# Submitted via: audiograbber 1.83.01
#
DISCID=ab0d9b0c
DTITLE=B.B. KING - The king of blues - Essential selection [CD3]
DYEAR=2012
DGENRE=Blues
TTITLE0=Outside Help
TTITLE1=There's Something On Your Mind (feat. Etta James)
TTITLE2=Summer In The City
TTITLE3=Why I Sing The Blues
TTITLE4=So Excited
TTITLE5=Nobody Loves Me But My Mother
TTITLE6=I've Got A Mind To Give Up Living
TTITLE7=Please Love Me
TTITLE8=Ain't Nobody Business (feat. Etta James)
TTITLE9=The Other Night Blues
TTITLE10=Ain't Nobody Home
TTITLE11=Payin' The Cost To Be The Boss (Different Version)
EXTD=
EXTT0=
EXTT1=
EXTT2=
EXTT3=
EXTT4=
EXTT5=
EXTT6=
EXTT7=
EXTT8=
EXTT9=
EXTT10=
EXTT11=
PLAYORDER=
